<svg xmlns="http://www.w3.org/2000/svg" viewBox="0 0 32 32" width="32" height="32">
  <rect width="32" height="32" rx="8" fill="#1E8E85"/>
  <g transform="translate(8.3 6) scale(0.325)">
    <path d="M24 3C13.5 3 5 11.5 5 22c0 8.9 7.2 16.4 13.4 24.6 1.9 2.5 3.7 5 5.1 7.5.2.4.8.4 1 0 1.4-2.5 3.2-5 5.1-7.5C36.8 38.4 44 30.9 44 22 44 11.5 35.5 3 24 3Z" fill="#ffffff"/>
    <path d="M24 11.5l2.7 6.8 6.8 2.7-6.8 2.7L24 30.5l-2.7-6.8L14.5 21l6.8-2.7z" fill="#1E8E85"/>
    <circle cx="24" cy="8" r="1.15" fill="#1E8E85"/>
    <circle cx="32" cy="16" r="1.05" fill="#1E8E85"/>
    <circle cx="16" cy="16" r="1.05" fill="#1E8E85"/>
  </g>
</svg>
